<?xml version="1.0" standalone="no"?><!DOCTYPE svg PUBLIC "-//W3C//DTD SVG 1.1//EN" "http://www.w3.org/Graphics/SVG/1.1/DTD/svg11.dtd"><svg t="1570611883933" class="icon" viewBox="0 0 1024 1024" version="1.1" xmlns="http://www.w3.org/2000/svg" p-id="1303" xmlns:xlink="http://www.w3.org/1999/xlink" width="200" height="200"><defs><style type="text/css"></style></defs><path d="M523.1 857.8c-61.4 3.1-124-19.8-169.3-68.8-63.2-68.3-101.7-159.6-101.7-259.9 0-134.4 69.3-252.7 174.1-321 29.3-19.1 63.4-27.5 96.9-25.2-26.2 1.8-52 10.2-74.9 25.2-104.8 68.3-174.1 186.5-174.1 321 0 100.3 38.6 191.6 101.7 259.9 39.9 43.2 93.2 66.1 147.3 68.8z" fill="#232323" p-id="1304"></path><path d="M772.1 529.1c0 100.3-38.6 191.6-101.7 259.9-39.9 43.1-93.2 66.1-147.3 68.8-54.1-2.7-107.4-25.7-147.3-68.8-63.2-68.3-101.7-159.6-101.7-259.9 0-134.4 69.3-252.7 174.1-321 22.9-14.9 48.7-23.3 74.9-25.2 26.2 1.8 52 10.2 74.9 25.2 104.8 68.4 174.1 186.6 174.1 321z" p-id="1305"></path><path d="M772.1 529.1c0 100.3-38.6 191.6-101.7 259.9-45.3 49-107.8 71.9-169.3 68.8 54.1-2.7 107.4-25.7 147.3-68.8 63.1-68.3 101.7-159.6 101.7-259.9 0-134.4-69.3-252.7-174.1-321a158.15 158.15 0 0 0-74.9-25.2c33.5-2.3 67.6 6 96.9 25.2 104.8 68.4 174.1 186.6 174.1 321z" p-id="1306"></path><path d="M368.3 221.6c17-1.1 31.4-12.3 37.1-27.6-5.4-3.4-10.3-7.5-14.7-12-4.9 10.4-15 17.9-26.9 19.1 0.6 7.1 2.2 14 4.5 20.5z" p-id="1307"></path><path d="M656 221.6c-17-1.1-31.4-12.3-37.1-27.6 5.4-3.4 10.3-7.5 14.7-12 4.9 10.4 15 17.9 26.9 19.1-0.6 7.1-2.1 14-4.5 20.5z" p-id="1308"></path><path d="M145.3 501.5c-4.4 4.9-7.6 10.9-9.5 17.4-2.4-40.3-28.4-76.4-56.1-102.3 5.4 3.6 12.8 6.5 20.8 8.6 20.2 20.9 38.2 47.1 44.8 76.3z" fill="#232323" p-id="1309"></path><path d="M256 460.2c-14.6 9.4-26.5 22.5-34.4 38.1-1.6 3.1-3 6.3-4.2 9.6-6.9-11.4-18.7-19.5-32.5-21.3-2-0.3-4-0.4-6-0.4-13.4 0-25.5 5.9-33.7 15.3-6.6-29.1-24.6-55.4-44.8-76.3 10.4 2.9 21.8 4.4 31 4.4 2 0 3.9-0.1 5.8-0.2 23.3-1.7 43.8-13.3 57.3-30.6l61.5 61.4z" p-id="1310"></path><path d="M813.1 499.5c-2.5 2.5-4.7 5.3-6.5 8.4-7.4-19.8-21.1-36.5-38.6-47.7l61.5-61.5c1.5 1.9 3 3.7 4.7 5.5l-56.1 56.1c15 9.5 27.2 23.2 35 39.2z" fill="#232323" p-id="1311"></path><path d="M944.4 416.5c-2.7 2.5-5.4 5.2-8.1 7.9-20.9 21.5-39.6 48.6-45.9 78.8-1.1 5.1-1.8 10.4-2.1 15.6-4.9-17.3-19.8-30.3-38.1-32.4a44.712 44.712 0 0 0-37 13c-7.8-16.1-20-29.7-35-39.3l56.1-56.1c14.6 15.6 35.3 25.4 58.4 25.4 1.7 0 3.4 0 5.2-0.2 15.5-0.7 35.2-5.3 46.5-12.7z" p-id="1312"></path><path d="M407.774557 481.137589a41.6 77.8 14.999 1 0 40.269621-150.298762 41.6 77.8 14.999 1 0-40.269621 150.298762Z" fill="#FFFFFF" p-id="1313"></path><path d="M431.3 406m-10 0a10 10 0 1 0 20 0 10 10 0 1 0-20 0Z" p-id="1314"></path><path d="M557.618341 416.782094a77.8 41.6 75.001 1 0 80.365404-21.532342 77.8 41.6 75.001 1 0-80.365404 21.532342Z" fill="#FFFFFF" p-id="1315"></path><path d="M594.4 406m-10 0a10 10 0 1 0 20 0 10 10 0 1 0-20 0Z" p-id="1316"></path><path d="M556 622.5c-13.7 5-28.4 7.7-43.8 7.7h-0.1-0.1c-15.4 0-30.2-2.7-43.8-7.7-10-3.6-19.4-8.5-28-14.3 2.5 17.8 8.3 34.5 16.7 49.6 2.1-4.4 4-9 5.6-13.7 1.8-5.3 7.4-8.2 12.8-6.7 11.7 3.2 24 4.9 36.7 4.9h0.2c12.7 0 25-1.7 36.7-4.9 5.4-1.5 11 1.4 12.8 6.7 1.6 4.7 3.5 9.2 5.6 13.7 8.5-15 14.2-31.8 16.7-49.6-8.6 5.8-18 10.6-28 14.3z" fill="#FFFFFF" p-id="1317"></path><path d="M343.6 317.3m-3.8 0a3.8 3.8 0 1 0 7.6 0 3.8 3.8 0 1 0-7.6 0Z" fill="#FFFFFF" p-id="1318"></path></svg>